<?xml version="1.0" encoding="utf-8"?>
<!-- Generator: Adobe Illustrator 25.3.1, SVG Export Plug-In . SVG Version: 6.00 Build 0)  -->
<svg version="1.1" id="Слой_1" xmlns="http://www.w3.org/2000/svg" xmlns:xlink="http://www.w3.org/1999/xlink" x="0px" y="0px"
	 viewBox="0 0 1024 1024" style="enable-background:new 0 0 1024 1024;" xml:space="preserve">
<style type="text/css">
	.st0{fill:#E9F1F7;}
</style>
<g>
	<g>
		<g>
			<path class="st0" d="M285.2,965.3L512.3,570l223.8,395.3h-81.7c-1.2-11.9-8.1-66.4-55.5-106.2c-35.2-29.5-130.9-25.6-156.8-6.5
				c-53,39.1-64.5,97.9-67,112.7C345.1,965.3,315.2,965.3,285.2,965.3z"/>
			<circle class="st0" cx="510.7" cy="965.3" r="49"/>
		</g>
		<circle class="st0" cx="510.7" cy="512" r="49"/>
		<g>
			<path class="st0" d="M285.2,58.7L512.3,454L736.1,58.7h-81.7c-1.2,11.9-8.1,66.4-55.5,106.2c-35.2,29.5-130.9,25.6-156.8,6.5
				c-53-39.1-64.5-97.9-67-112.7C345.1,58.7,315.2,58.7,285.2,58.7z"/>
			<circle class="st0" cx="510.7" cy="58.7" r="49"/>
		</g>
		<g>
			<path class="st0" d="M796,930.7L567.2,536.4l454.3,3.8L980.6,611c-10.9-4.9-61.6-26.2-119.7-5c-43.2,15.8-87.7,100.5-84.1,132.5
				c7.3,65.4,52.5,104.8,64.1,114.4C826,878.9,811,904.8,796,930.7z"/>
			<circle class="st0" cx="908.7" cy="735.5" r="49"/>
		</g>
		<g>
			<path class="st0" d="M796,89L567.2,483.4l454.3-3.8l-40.8-70.7c-10.9,4.9-61.6,26.2-119.7,5c-43.2-15.8-87.7-100.5-84.1-132.5
				c7.3-65.4,52.5-104.8,64.1-114.4C826,140.9,811,115,796,89z"/>
			<circle class="st0" cx="908.7" cy="284.3" r="49"/>
		</g>
		<g>
			<path class="st0" d="M228,932.9l228.8-394.3L2.6,542.4l40.8,70.7c10.9-4.9,61.6-26.2,119.7-5c43.2,15.8,87.7,100.5,84.1,132.5
				c-7.3,65.4-52.5,104.8-64.1,114.4C198,881,213,906.9,228,932.9z"/>
			<circle class="st0" cx="115.3" cy="737.6" r="49"/>
		</g>
		<g>
			<path class="st0" d="M228,91.1l228.8,394.3L2.6,481.6l40.8-70.7c10.9,4.9,61.6,26.2,119.7,5c43.2-15.8,87.7-100.5,84.1-132.5
				c-7.3-65.4-52.5-104.8-64.1-114.4C198,143,213,117.1,228,91.1z"/>
			<circle class="st0" cx="115.3" cy="286.4" r="49"/>
		</g>
	</g>
</g>
</svg>
